# xmcd CD database file
#
# Track frame offsets:
#	150
#	15064
#	39608
#	73020
#	96054
#	109536
#	141597
#	176761
#	200167
#	219024
#	252522
#	280402
#
# Disc length: 4231 seconds
#
# Revision: 2
# Processed by: cddbd v1.5PL3 Copyright (c) Steve Scherf et al.
# Submitted via: CDex 1.51
#
DISCID=ae10850c
DTITLE=Jim Walker and The Blue Snakes - Live At Kansas City Hall
DYEAR=2000
DGENRE=Blues
TTITLE0=J W's Swing Time (Live)
TTITLE1=Pride And Joy (Live)
TTITLE2=I Can't Go Home Tonight (Live)
TTITLE3=Superstition (Live)
TTITLE4=Automobile (Live)
TTITLE5=The Blues Don't Care (Live)
TTITLE6=Little Red Rooster (Live)
TTITLE7=T Bone Shuffle (Live)
TTITLE8=J W's Funky Time (Live)
TTITLE9=Voodoo Child (Live)
TTITLE10=Let The Blue Snakes Roll (Live)
TTITLE11=Hey Joe (Live)
EXTD=YEAR: 2000
EXTT0=
EXTT1=
EXTT2=
EXTT3=
EXTT4=
EXTT5=
EXTT6=
EXTT7=
EXTT8=
EXTT9=
EXTT10=
EXTT11=
PLAYORDER=
